<svg xmlns="http://www.w3.org/2000/svg" xmlns:xlink="http://www.w3.org/1999/xlink" width="1183.7" height="376.6" viewBox="0 0 1183.7 376.6"><defs><linearGradient id="a" x1="887.53" y1="-21.58" x2="887.53" y2="227.49" gradientUnits="userSpaceOnUse"><stop offset="0.3" stop-color="#c11010"/><stop offset="1" stop-color="#070707"/></linearGradient><linearGradient id="b" x1="555.52" y1="-21.58" x2="555.52" y2="227.49" gradientUnits="userSpaceOnUse"><stop offset="0.27" stop-color="#c11010"/><stop offset="1" stop-color="#070707"/></linearGradient><linearGradient id="c" x1="677.31" y1="-21.58" x2="677.31" y2="227.49" gradientUnits="userSpaceOnUse"><stop offset="0.33" stop-color="#c11010"/><stop offset="1" stop-color="#070707"/></linearGradient><linearGradient id="d" x1="315.16" y1="-21.58" x2="315.16" y2="227.49" gradientUnits="userSpaceOnUse"><stop offset="0.4" stop-color="#c11010"/><stop offset="1" stop-color="#070707"/></linearGradient></defs><rect y="269.5" width="1183.7" height="107.11" fill="#fff"/><path d="M30.3,347.9V298.3c0-.5.2-.7.7-.7h6.7a1.3,1.3,0,0,1,1.3.7l14,31.5h.3l13.8-31.5c.2-.5.6-.7,1.3-.7H75c.5,0,.7.2.7.7v49.6c0,.5-.2.7-.7.7H68.5c-.5,0-.8-.2-.8-.7V316.6h-.3L56.6,340.7a1.5,1.5,0,0,1-1.4.9H50.8a1.5,1.5,0,0,1-1.4-.9L38.6,316.6h-.3v31.3c0,.5-.3.7-.8.7H31C30.5,348.6,30.3,348.4,30.3,347.9Z" fill="#1c1c1c"/><path d="M129.6,348.6h-7.4c-.5,0-.7-.2-.7-.7V327.7l-14.8-29.4c-.2-.5,0-.7.6-.7h7.6a1,1,0,0,1,1,.7l10,19.8h.2l10.1-19.8a1,1,0,0,1,1-.7h7.3c.6,0,.8.2.6.7l-14.8,29.4v20.2C130.3,348.4,130.1,348.6,129.6,348.6Z" fill="#1c1c1c"/><path d="M246.8,348.6H215c-.5,0-.7-.2-.7-.7v-6.5a1.3,1.3,0,0,1,.2-.8l23-34.9v-.2H215.8c-.5,0-.7-.2-.7-.7v-6.5c0-.5.2-.7.7-.7h31c.5,0,.7.2.7.7v6.5a.8.8,0,0,1-.2.7l-23,35v.2h22.5c.5,0,.7.2.7.7v6.5C247.5,348.4,247.3,348.6,246.8,348.6Z" fill="#1c1c1c"/><path d="M298.7,349.4a19.7,19.7,0,0,1-11.3-3.1,16.8,16.8,0,0,1-6.7-9.2c-.9-2.7-1.3-7.4-1.3-14s.4-11.3,1.3-14.1a16.5,16.5,0,0,1,6.7-9.1,19.8,19.8,0,0,1,11.3-3.2,20.4,20.4,0,0,1,11.5,3.2,16.8,16.8,0,0,1,6.6,9.1c.9,2.8,1.4,7.4,1.4,14.1s-.5,11.3-1.4,14a17.1,17.1,0,0,1-6.6,9.2A20.4,20.4,0,0,1,298.7,349.4Zm0-7.9c4.8,0,8-2.2,9.6-6.7q.9-2.9.9-11.7t-.9-11.7c-1.6-4.5-4.8-6.7-9.6-6.7s-7.9,2.2-9.4,6.7q-.9,2.9-.9,11.7t.9,11.7C290.8,339.3,294,341.5,298.7,341.5Z" fill="#1c1c1c"/><path d="M352.3,347.9V298.3c0-.5.3-.7.8-.7H360a1.5,1.5,0,0,1,1.3.7l20.8,35.2h.3V298.3c0-.5.2-.7.7-.7h6.5c.5,0,.8.2.8.7v49.6c0,.5-.3.7-.8.7h-6.8a1.5,1.5,0,0,1-1.3-.7l-20.8-35.2h-.3v35.2c0,.5-.3.7-.8.7h-6.5C352.6,348.6,352.3,348.4,352.3,347.9Z" fill="#1c1c1c"/><path d="M426.1,347.9V298.3c0-.5.2-.7.7-.7h32c.5,0,.7.2.7.7v6.5c0,.5-.2.7-.7.7H435.4a.5.5,0,0,0-.5.5v12.4a.5.5,0,0,0,.5.5h19.7c.5,0,.8.2.8.7v6.5c0,.5-.3.7-.8.7H435.4a.5.5,0,0,0-.5.5v12.9a.5.5,0,0,0,.5.5h23.4c.5,0,.7.2.7.7v6.5c0,.5-.2.7-.7.7h-32C426.3,348.6,426.1,348.4,426.1,347.9Z" fill="#1c1c1c"/><path d="M528.6,347.8V298.2c0-.5.2-.7.7-.7h32c.5,0,.7.2.7.7v6.5c0,.5-.2.8-.7.8H537.9c-.3,0-.5.1-.5.4v13c0,.3.2.4.5.4h19.7a.7.7,0,0,1,.8.8v6.5c0,.5-.3.7-.8.7H537.9a.5.5,0,0,0-.5.5v20c0,.5-.2.8-.7.8h-7.4C528.8,348.6,528.6,348.3,528.6,347.8Z" fill="#1c1c1c"/><path d="M612.9,349.4a19.8,19.8,0,0,1-11.3-3.2,16.5,16.5,0,0,1-6.7-9.1c-.9-2.7-1.3-7.4-1.3-14.1s.4-11.3,1.3-14a16.8,16.8,0,0,1,6.7-9.2,19.7,19.7,0,0,1,11.3-3.1,20.2,20.2,0,0,1,11.5,3.1A17.1,17.1,0,0,1,631,309c.9,2.7,1.4,7.4,1.4,14s-.5,11.4-1.4,14.1a16.8,16.8,0,0,1-6.6,9.1A20.2,20.2,0,0,1,612.9,349.4Zm0-8c4.8,0,8-2.2,9.6-6.7q.9-2.7.9-11.7t-.9-11.7c-1.6-4.4-4.8-6.7-9.6-6.7a9.2,9.2,0,0,0-9.4,6.7q-.9,2.8-.9,11.7t.9,11.7C605,339.2,608.2,341.4,612.9,341.4Z" fill="#1c1c1c"/><path d="M703.9,348.6h-8.4a1.2,1.2,0,0,1-1.1-.8l-9.8-19.9h-8.7a.5.5,0,0,0-.5.5v19.4c0,.5-.2.8-.7.8h-7.4a.7.7,0,0,1-.8-.8V298.2c0-.5.3-.7.8-.7H687a16.4,16.4,0,0,1,11.7,4.3,14.1,14.1,0,0,1,4.6,10.9,14.5,14.5,0,0,1-9.7,14.1l10.8,20.8a.9.9,0,0,1,0,.7A.5.5,0,0,1,703.9,348.6Zm-17.2-28.7a8,8,0,0,0,5.7-1.9,7.5,7.5,0,0,0,0-10.6,8,8,0,0,0-5.7-1.9H675.9c-.3,0-.5.1-.5.4v13.6c0,.3.2.4.5.4Z" fill="#1c1c1c"/><path d="M779.5,347.8V298.2c0-.5.3-.7.8-.7h7.3c.5,0,.8.2.8.7v20.2c0,.3.1.4.4.4h19.5c.3,0,.4-.1.4-.4V298.2c0-.5.3-.7.8-.7h7.4c.5,0,.7.2.7.7v49.6c0,.5-.2.8-.7.8h-7.4a.7.7,0,0,1-.8-.8V327.2c0-.3-.1-.4-.4-.4H788.8c-.3,0-.4.1-.4.4v20.6a.7.7,0,0,1-.8.8h-7.3A.7.7,0,0,1,779.5,347.8Z" fill="#1c1c1c"/><path d="M853.3,347.8V298.2c0-.5.2-.7.7-.7h32c.5,0,.7.2.7.7v6.5c0,.5-.2.8-.7.8H862.6c-.3,0-.5.1-.5.4v12.5c0,.3.2.4.5.4h19.7a.7.7,0,0,1,.8.8V326a.7.7,0,0,1-.8.8H862.6c-.3,0-.5.1-.5.4v12.9a.5.5,0,0,0,.5.5H886c.5,0,.7.2.7.7v6.5c0,.5-.2.8-.7.8H854C853.5,348.6,853.3,348.3,853.3,347.8Z" fill="#1c1c1c"/><path d="M916.2,347.8l17.5-49.6a.8.8,0,0,1,.9-.7h7a.8.8,0,0,1,.9.7l17.3,49.6c.1.5,0,.8-.5.8h-7.4a1.1,1.1,0,0,1-1-.8l-3.3-9.9H928.3l-3.3,9.9a1.1,1.1,0,0,1-1,.8h-7.3C916.2,348.6,916,348.3,916.2,347.8ZM931,330h13.9l-6.8-19.8h-.2Z" fill="#1c1c1c"/><path d="M991.2,347.8V298.2c0-.5.2-.7.7-.7h7.4c.5,0,.7.2.7.7v41.9a.5.5,0,0,0,.5.5h23.4c.5,0,.8.2.8.7v6.5a.7.7,0,0,1-.8.8h-32C991.4,348.6,991.2,348.3,991.2,347.8Z" fill="#1c1c1c"/><path d="M1068.4,348.6h-7.3a.7.7,0,0,1-.8-.8V305.9c0-.3-.1-.4-.4-.4h-13.4c-.5,0-.7-.3-.7-.8v-6.5c0-.5.2-.7.7-.7H1083c.5,0,.8.2.8.7v6.5a.7.7,0,0,1-.8.8h-13.4c-.3,0-.4.1-.4.4v41.9A.7.7,0,0,1,1068.4,348.6Z" fill="#1c1c1c"/><path d="M1115.4,347.8V298.2c0-.5.3-.7.8-.7h7.3c.5,0,.8.2.8.7v20.2c0,.3.1.4.4.4h19.5c.3,0,.4-.1.4-.4V298.2c0-.5.3-.7.8-.7h7.3c.5,0,.8.2.8.7v49.6a.7.7,0,0,1-.8.8h-7.3a.7.7,0,0,1-.8-.8V327.2c0-.3-.1-.4-.4-.4h-19.5c-.3,0-.4.1-.4.4v20.6a.7.7,0,0,1-.8.8h-7.3A.7.7,0,0,1,1115.4,347.8Z" fill="#1c1c1c"/><path d="M815.8,104.5V49.3c0-14.4-.1-28.8,0-43.2,0-2.1-.5-3-2.7-2.9a97.3,97.3,0,0,1-10.8,0c-2.4-.1-3.1.6-3.1,3.1q.1,110.9,0,221.8v2.8H816V120.4H959.2V230.9h16.7v-3.2q-.1-110.5-.1-221.1a6.6,6.6,0,0,0-.1-2c-.1-.5-.7-1.2-1-1.2H959.1V104.5Z" fill="url(#a)"/><path d="M620.3,18.9c-.7.9-1.1,1.6-1.6,2.1-6.3,8.2-12.6,16.3-19,24.4L468.4,214.1c-.5.7-1.4,1.6-1.4,2.4-.1,4.8,0,9.7,0,14.6H644.1V215.6H488.7l1.4-2.1,67.8-87.2,82-105.5c.6-.8,1.6-1.7,1.7-2.6.1-4.8,0-9.7,0-14.5H474.8V18.9Z" fill="url(#b)"/><path d="M703.7,232c-.1-8.8-.1-17.6-.2-26.4V175H574.6c0-4.7.1-7.8-.1-13.5a27.9,27.9,0,0,1,6-17.7Q636.4,73,691.9,1.8A4.3,4.3,0,0,1,695.6,0h33.6L615.8,146.1h88.8v-50h31.3v50.2h41.4c2.2-.1,2.8.6,2.8,2.8-.1,7.7,0,15.5,0,23.3,0,.7-.1,1.5-.2,2.5H736V229c0,1-.2,2-.3,3Z" fill="url(#c)"/><path d="M207.9,223.6c.3-5.1.8-10.3,1-15.5.9-19,1.7-38,2.6-57l3.3-74.5c1.1-23.4,2.1-46.8,3.2-70.3.1-.8.3-1.7.4-2.8,5.6,0,11.1-.1,16.6.1.8,0,1.8,1.2,2.3,2.1q18.6,31.5,37.1,63.2l39.7,67.4c.3.6.7,1.1,1.2,2,3.7-6,7.2-11.9,10.7-17.7L394.7,6a4.5,4.5,0,0,1,4.4-2.6c4.1.2,8.3.1,12.9.1l10.5,227.6H405.8c-2.6-67.1-5.2-134-7.7-201.7a18,18,0,0,0-1.8,2.5L321.5,156.3c-1.4,2.4-3,3.1-5.7,3.4-5.6.7-8.2-1.8-10.8-6.4Q269.6,92.7,234,32.4L232.5,30a20.1,20.1,0,0,0-.5,2.3l-2.4,64.3c-.6,18.1-1.3,36.3-2,54.4l-2.1,53.8-.9,24.1c0,1.9-.6,2.5-2.6,2.5-4.7-.1-9.4,0-14.1.1Z" fill="url(#d)"/></svg>